mtllib wire_turned..mtl
o 0
v -7.985280902428071 1 0.48528131719167966
v 0.5000003265910937 1 -7.999999911827485
v -7.985280902428071 0 0.48528131719167966
v 0.5000003265910937 0 -7.999999911827485
v 0.005025596661011988 1 -8.494974641757567
v -8.480255632358153 1 -0.009693412738402074
v 0.005025596661011988 0 -8.494974641757567
v -8.480255632358153 0 -0.009693412738402074
vt 0 1
vt 0 0.9375
vt 0.75 1
vt 0 0.9375
vt 0.75 0.9375
vt 0.75 1
vt 0 1
vt 0 0.9375
vt 0.75 1
vt 0 0.9375
vt 0.75 0.9375
vt 0.75 1
vt 0 1
vt 0 0.25
vt 0.04375 1
vt 0 0.25
vt 0.04375 0.25
vt 0.04375 1
vt 0 1
vt 0 0.25
vt 0.04375 1
vt 0 0.25
vt 0.04375 0.25
vt 0.04375 1
vt 0 1
vt 0 0.9375
vt 0.04375 1
vt 0 0.9375
vt 0.04375 0.9375
vt 0.04375 1
vt 0 1
vt 0 0.9375
vt 0.04375 1
vt 0 0.9375
vt 0.04375 0.9375
vt 0.04375 1
vn 0.7071067690849304 0 0.7071067690849304
vn 0.7071067690849304 0 0.7071067690849304
vn 0.7071067690849304 0 0.7071067690849304
vn 0.7071067690849304 0 0.7071067690849304
vn 0.7071067690849304 0 0.7071067690849304
vn 0.7071067690849304 0 0.7071067690849304
vn -0.7071067690849304 0 -0.7071067690849304
vn -0.7071067690849304 0 -0.7071067690849304
vn -0.7071067690849304 0 -0.7071067690849304
vn -0.7071067690849304 0 -0.7071067690849304
vn -0.7071067690849304 0 -0.7071067690849304
vn -0.7071067690849304 0 -0.7071067690849304
vn 0 1 0
vn 0 1 0
vn 0 1 0
vn 0 1 0
vn 0 1 0
vn 0 1 0
vn 0 -1 0
vn 0 -1 0
vn 0 -1 0
vn 0 -1 0
vn 0 -1 0
vn 0 -1 0
vn -0.7071067690849304 0 0.7071067690849304
vn -0.7071067690849304 0 0.7071067690849304
vn -0.7071067690849304 0 0.7071067690849304
vn -0.7071067690849304 0 0.7071067690849304
vn -0.7071067690849304 0 0.7071067690849304
vn -0.7071067690849304 0 0.7071067690849304
vn 0.7071067690849304 0 -0.7071067690849304
vn 0.7071067690849304 0 -0.7071067690849304
vn 0.7071067690849304 0 -0.7071067690849304
vn 0.7071067690849304 0 -0.7071067690849304
vn 0.7071067690849304 0 -0.7071067690849304
vn 0.7071067690849304 0 -0.7071067690849304
usemtl 0
f 1/1/1 3/2/2 2/3/3
f 3/4/4 4/5/5 2/6/6
usemtl 0
f 5/7/7 7/8/8 6/9/9
f 7/10/10 8/11/11 6/12/12
usemtl 0
f 5/13/13 6/14/14 2/15/15
f 6/16/16 1/17/17 2/18/18
usemtl 0
f 8/19/19 7/20/20 3/21/21
f 7/22/22 4/23/23 3/24/24
usemtl 0
f 6/25/25 8/26/26 1/27/27
f 8/28/28 3/29/29 1/30/30
usemtl 0
f 2/31/31 4/32/32 5/33/33
f 4/34/34 7/35/35 5/36/36
o 1
v -7.985280902428071 8 0.48528131719167966
v 0.5000003265910937 8 -7.999999911827485
v -7.985280902428071 7 0.48528131719167966
v 0.5000003265910937 7 -7.999999911827485
v 0.005025596661011988 8 -8.494974641757567
v -8.480255632358153 8 -0.009693412738402074
v 0.005025596661011988 7 -8.494974641757567
v -8.480255632358153 7 -0.009693412738402074
vt 0 1
vt 0 0.9375
vt 0.75 1
vt 0 0.9375
vt 0.75 0.9375
vt 0.75 1
vt 0 1
vt 0 0.9375
vt 0.75 1
vt 0 0.9375
vt 0.75 0.9375
vt 0.75 1
vt 0 1
vt 0 0.25
vt 0.04375 1
vt 0 0.25
vt 0.04375 0.25
vt 0.04375 1
vt 0 1
vt 0 0.25
vt 0.04375 1
vt 0 0.25
vt 0.04375 0.25
vt 0.04375 1
vt 0 1
vt 0 0.9375
vt 0.04375 1
vt 0 0.9375
vt 0.04375 0.9375
vt 0.04375 1
vt 0 1
vt 0 0.9375
vt 0.04375 1
vt 0 0.9375
vt 0.04375 0.9375
vt 0.04375 1
vn 0.7071067690849304 0 0.7071067690849304
vn 0.7071067690849304 0 0.7071067690849304
vn 0.7071067690849304 0 0.7071067690849304
vn 0.7071067690849304 0 0.7071067690849304
vn 0.7071067690849304 0 0.7071067690849304
vn 0.7071067690849304 0 0.7071067690849304
vn -0.7071067690849304 0 -0.7071067690849304
vn -0.7071067690849304 0 -0.7071067690849304
vn -0.7071067690849304 0 -0.7071067690849304
vn -0.7071067690849304 0 -0.7071067690849304
vn -0.7071067690849304 0 -0.7071067690849304
vn -0.7071067690849304 0 -0.7071067690849304
vn 0 1 0
vn 0 1 0
vn 0 1 0
vn 0 1 0
vn 0 1 0
vn 0 1 0
vn 0 -1 0
vn 0 -1 0
vn 0 -1 0
vn 0 -1 0
vn 0 -1 0
vn 0 -1 0
vn -0.7071067690849304 0 0.7071067690849304
vn -0.7071067690849304 0 0.7071067690849304
vn -0.7071067690849304 0 0.7071067690849304
vn -0.7071067690849304 0 0.7071067690849304
vn -0.7071067690849304 0 0.7071067690849304
vn -0.7071067690849304 0 0.7071067690849304
vn 0.7071067690849304 0 -0.7071067690849304
vn 0.7071067690849304 0 -0.7071067690849304
vn 0.7071067690849304 0 -0.7071067690849304
vn 0.7071067690849304 0 -0.7071067690849304
vn 0.7071067690849304 0 -0.7071067690849304
vn 0.7071067690849304 0 -0.7071067690849304
usemtl 0
f 9/37/37 11/38/38 10/39/39
f 11/40/40 12/41/41 10/42/42
usemtl 0
f 13/43/43 15/44/44 14/45/45
f 15/46/46 16/47/47 14/48/48
usemtl 0
f 13/49/49 14/50/50 10/51/51
f 14/52/52 9/53/53 10/54/54
usemtl 0
f 16/55/55 15/56/56 11/57/57
f 15/58/58 12/59/59 11/60/60
usemtl 0
f 14/61/61 16/62/62 9/63/63
f 16/64/64 11/65/65 9/66/66
usemtl 0
f 10/67/67 12/68/68 13/69/69
f 12/70/70 15/71/71 13/72/72
o 2
v -4.3585783851570294 7 -3.1514720929092572
v -3.651471616072099 7 -3.8585788619941876
v -4.3585783851570294 1 -3.1514720929092572
v -3.651471616072099 1 -3.8585788619941876
v -4.146446346002181 7 -4.353553591924269
v -4.853553115087111 7 -3.646446822839339
v -4.146446346002181 1 -4.353553591924269
v -4.853553115087111 1 -3.646446822839339
vt 0 1
vt 0 0.625
vt 0.0625 1
vt 0 0.625
vt 0.0625 0.625
vt 0.0625 1
vt 0 1
vt 0 0.625
vt 0.0625 1
vt 0 0.625
vt 0.0625 0.625
vt 0.0625 1
vt 0 1
vt 0 0.9375
vt 0.04375 1
vt 0 0.9375
vt 0.04375 0.9375
vt 0.04375 1
vt 0 1
vt 0 0.9375
vt 0.04375 1
vt 0 0.9375
vt 0.04375 0.9375
vt 0.04375 1
vt 0 1
vt 0 0.625
vt 0.04375 1
vt 0 0.625
vt 0.04375 0.625
vt 0.04375 1
vt 0 1
vt 0 0.625
vt 0.04375 1
vt 0 0.625
vt 0.04375 0.625
vt 0.04375 1
vn 0.7071067690849304 0 0.7071067690849304
vn 0.7071067690849304 0 0.7071067690849304
vn 0.7071067690849304 0 0.7071067690849304
vn 0.7071067690849304 0 0.7071067690849304
vn 0.7071067690849304 0 0.7071067690849304
vn 0.7071067690849304 0 0.7071067690849304
vn -0.7071067690849304 0 -0.7071067690849304
vn -0.7071067690849304 0 -0.7071067690849304
vn -0.7071067690849304 0 -0.7071067690849304
vn -0.7071067690849304 0 -0.7071067690849304
vn -0.7071067690849304 0 -0.7071067690849304
vn -0.7071067690849304 0 -0.7071067690849304
vn 0 1 0
vn 0 1 0
vn 0 1 0
vn 0 1 0
vn 0 1 0
vn 0 1 0
vn 0 -1 0
vn 0 -1 0
vn 0 -1 0
vn 0 -1 0
vn 0 -1 0
vn 0 -1 0
vn -0.7071067690849304 0 0.7071067690849304
vn -0.7071067690849304 0 0.7071067690849304
vn -0.7071067690849304 0 0.7071067690849304
vn -0.7071067690849304 0 0.7071067690849304
vn -0.7071067690849304 0 0.7071067690849304
vn -0.7071067690849304 0 0.7071067690849304
vn 0.7071067690849304 0 -0.7071067690849304
vn 0.7071067690849304 0 -0.7071067690849304
vn 0.7071067690849304 0 -0.7071067690849304
vn 0.7071067690849304 0 -0.7071067690849304
vn 0.7071067690849304 0 -0.7071067690849304
vn 0.7071067690849304 0 -0.7071067690849304
usemtl 0
f 17/73/73 19/74/74 18/75/75
f 19/76/76 20/77/77 18/78/78
usemtl 0
f 21/79/79 23/80/80 22/81/81
f 23/82/82 24/83/83 22/84/84
usemtl 0
f 21/85/85 22/86/86 18/87/87
f 22/88/88 17/89/89 18/90/90
usemtl 0
f 24/91/91 23/92/92 19/93/93
f 23/94/94 20/95/95 19/96/96
usemtl 0
f 22/97/97 24/98/98 17/99/99
f 24/100/100 19/101/101 17/102/102
usemtl 0
f 18/103/103 20/104/104 21/105/105
f 20/106/106 23/107/107 21/108/108
