mtllib wire_slope.mtl
o 0
v 0.500000 24.043785 7.733127
v 0.500000 23.336678 8.440233
v 0.500000 7.780331 -8.530332
v 0.500000 7.073224 -7.823225
v -0.500000 7.780331 -8.530332
v -0.500000 7.073224 -7.823225
v -0.500000 24.043785 7.733127
v -0.500000 23.336678 8.440233
vt 0.000000 1.000000
vt 0.000000 0.937500
vt 1.000000 1.000000
vt 1.000000 0.937500
vt 0.000000 0.000000
vt 0.062500 1.000000
vt 0.062500 0.000000
vt 0.062500 0.937500
vn 1.000000 0.000000 0.000000
vn -1.000000 0.000000 0.000000
vn 0.000000 0.707100 -0.707100
vn 0.000000 -0.707100 0.707100
vn 0.000000 0.707100 0.707100
vn 0.000000 -0.707100 -0.707100
usemtl 0
s 1
f 1/1/1 2/2/1 3/3/1
f 2/2/1 4/4/1 3/3/1
f 5/1/2 6/2/2 7/3/2
f 6/2/2 8/4/2 7/3/2
f 5/1/3 7/5/3 3/6/3
f 7/5/3 1/7/3 3/6/3
f 8/1/4 6/5/4 2/6/4
f 6/5/4 4/7/4 2/6/4
f 7/1/5 8/2/5 1/6/5
f 8/2/5 2/8/5 1/6/5
f 3/1/6 4/2/6 5/6/6
f 4/2/6 6/8/6 5/6/6
o 2
v 0.500000 17.043785 7.733126
v 0.500000 16.336678 8.440233
v 0.500000 0.780332 -8.530333
v 0.500000 0.073224 -7.823225
v -0.500000 0.780332 -8.530333
v -0.500000 0.073224 -7.823225
v -0.500000 17.043785 7.733126
v -0.500000 16.336678 8.440233
vt 0.000000 1.000000
vt 0.000000 0.937500
vt 1.000000 1.000000
vt 1.000000 0.937500
vt 0.000000 0.000000
vt 0.062500 1.000000
vt 0.062500 0.000000
vt 0.062500 0.937500
vn 1.000000 0.000000 0.000000
vn -1.000000 0.000000 0.000000
vn 0.000000 0.707100 -0.707100
vn 0.000000 -0.707100 0.707100
vn 0.000000 0.707100 0.707100
vn 0.000000 -0.707100 -0.707100
usemtl 0
s 1
f 9/9/7 10/10/7 11/11/7
f 10/10/7 12/12/7 11/11/7
f 13/9/8 14/10/8 15/11/8
f 14/10/8 16/12/8 15/11/8
f 13/9/9 15/13/9 11/14/9
f 15/13/9 9/15/9 11/14/9
f 16/9/10 14/13/10 10/14/10
f 14/13/10 12/15/10 10/14/10
f 15/9/11 16/10/11 9/14/11
f 16/10/11 10/16/11 9/14/11
f 11/9/12 12/10/12 13/14/12
f 12/10/12 14/16/12 13/14/12
o 1
v 0.500000 14.889088 -1.181981
v 0.500000 11.353554 2.353552
v 0.500000 14.181981 -1.889088
v 0.500000 10.646446 1.646445
v -0.500000 14.181981 -1.889088
v -0.500000 10.646446 1.646445
v -0.500000 14.889088 -1.181981
v -0.500000 11.353554 2.353552
vt 0.000000 1.000000
vt 0.000000 0.687500
vt 0.062500 1.000000
vt 0.062500 0.687500
vt 0.000000 0.937500
vt 0.062500 0.937500
vn 1.000000 0.000000 0.000000
vn -1.000000 0.000000 0.000000
vn 0.000000 0.707100 -0.707100
vn 0.000000 -0.707100 0.707100
vn 0.000000 0.707100 0.707100
vn 0.000000 -0.707100 -0.707100
usemtl 0
s 1
f 17/17/13 18/18/13 19/19/13
f 18/18/13 20/20/13 19/19/13
f 21/17/14 22/18/14 23/19/14
f 22/18/14 24/20/14 23/19/14
f 21/17/15 23/21/15 19/19/15
f 23/21/15 17/22/15 19/19/15
f 24/17/16 22/21/16 18/19/16
f 22/21/16 20/22/16 18/19/16
f 23/17/17 24/18/17 17/19/17
f 24/18/17 18/20/17 17/19/17
f 19/17/18 20/18/18 21/19/18
f 20/18/18 22/20/18 21/19/18
