# Blender v2.79 (sub 0) OBJ File: ''
# www.blender.org
mtllib catenary_long.mtl
o b12
v 0.468750 0.681219 0.240848
v 0.468750 0.681219 -2.181219
v 0.531250 0.681219 -2.181219
v 0.531250 0.681219 0.240848
v 0.468750 0.743719 0.132594
v 0.468750 0.743719 -2.181219
v 0.531250 0.743719 -2.181219
v 0.531250 0.743719 0.132594
vt 0.200000 1.000000
vt 0.000000 0.000000
vt 0.200000 0.000000
vt 0.400000 0.044695
vt 0.800000 0.025804
vt 1.000000 0.000000
vt 1.000000 0.025804
vt 0.400000 0.000000
vt 0.600000 0.955305
vt 0.400000 1.000000
vt 0.800000 0.972604
vt 0.600001 0.049850
vt 0.800000 0.049850
vt 0.800000 0.000000
vt 0.000001 1.000000
vt 0.400000 1.000000
vt 0.800000 0.000000
vt 0.600000 0.000000
vt 0.600000 0.972604
vt 0.600001 0.000000
vn 0.0000 -1.0000 -0.0000
vn -1.0000 0.0000 0.0000
vn 0.0000 0.0000 -1.0000
vn 1.0000 0.0000 0.0000
vn 0.0000 1.0000 0.0000
vn 0.0000 0.8660 0.5000
usemtl None
s off
f 2/1/1 4/2/1 1/3/1
f 5/4/2 2/1/2 1/3/2
f 2/5/3 7/6/3 3/7/3
f 3/8/4 8/9/4 4/10/4
f 7/11/5 5/12/5 8/13/5
f 5/12/6 4/14/6 8/13/6
f 2/1/1 3/15/1 4/2/1
f 5/4/2 6/16/2 2/1/2
f 2/5/3 6/17/3 7/6/3
f 3/8/4 7/18/4 8/9/4
f 7/11/5 6/19/5 5/12/5
f 5/12/6 1/20/6 4/14/6
o b0
v 0.406250 0.164623 1.010617
v 0.406250 0.327003 1.104367
v 0.406250 0.358253 1.050241
v 0.406250 0.195874 0.956490
v 0.593750 0.358253 1.050241
v 0.593750 0.195874 0.956490
v 0.593750 0.327003 1.104367
v 0.593750 0.164623 1.010617
vt 0.666667 0.500000
vt 0.500000 0.000000
vt 0.666667 0.000000
vt 0.000000 0.500000
vt 0.500000 1.000000
vt 0.000000 1.000000
vt 0.833333 0.000000
vt 0.666667 0.500000
vt 0.666667 0.000000
vt 0.000000 0.000000
vt 0.500000 0.500000
vt 0.000000 0.500000
vt 1.000000 0.500000
vt 0.833333 0.500000
vt 0.666667 0.500000
vt 0.833333 1.000000
vt 0.666667 1.000000
vt 0.500000 0.500000
vt 0.500000 0.500000
vt 0.833333 0.500000
vt 0.500000 0.000000
vt 1.000000 0.000000
vt 0.833333 0.500000
vn -1.0000 -0.0000 0.0000
vn 0.0000 0.5000 -0.8660
vn 1.0000 0.0000 0.0000
vn 0.0000 -0.5000 0.8660
vn 0.0000 -0.8660 -0.5000
vn 0.0000 0.8660 0.5000
usemtl None
s off
f 10/21/7 12/22/7 9/23/7
f 11/24/8 14/25/8 12/26/8
f 14/27/9 15/28/9 16/29/9
f 15/30/10 9/31/10 16/32/10
f 14/27/11 9/33/11 12/34/11
f 11/35/12 15/36/12 13/37/12
f 10/21/7 11/38/7 12/22/7
f 11/24/8 13/39/8 14/25/8
f 14/27/9 13/40/9 15/28/9
f 15/30/10 10/41/10 9/31/10
f 14/27/11 16/42/11 9/33/11
f 11/35/12 10/43/12 15/36/12
o b4
v 0.406250 0.289624 0.794111
v 0.406250 0.452003 0.887861
v 0.406250 0.483253 0.833734
v 0.406250 0.320874 0.739984
v 0.593750 0.483253 0.833734
v 0.593750 0.320874 0.739984
v 0.593750 0.452003 0.887861
v 0.593750 0.289624 0.794111
vt 0.000000 0.500000
vt 0.166667 1.000000
vt 0.000000 1.000000
vt 0.500000 0.500000
vt 1.000000 0.000000
vt 1.000000 0.500000
vt 0.166667 1.000000
vt 0.333334 0.500000
vt 0.333334 1.000000
vt 0.000000 0.000000
vt 0.500000 0.500000
vt 0.000000 0.500000
vt 0.500000 0.500000
vt 0.666667 1.000000
vt 0.500000 1.000000
vt 0.333334 0.500000
vt 0.500000 1.000000
vt 0.333334 1.000000
vt 0.166667 0.500000
vt 0.500000 0.000000
vt 0.166667 0.500000
vt 0.500000 0.000000
vt 0.666667 0.500000
vt 0.500000 0.500000
vn -1.0000 0.0000 0.0000
vn 0.0000 0.5000 -0.8660
vn 1.0000 0.0000 0.0000
vn 0.0000 -0.5000 0.8660
vn 0.0000 -0.8660 -0.5000
vn 0.0000 0.8660 0.5000
usemtl None
s off
f 18/44/13 20/45/13 17/46/13
f 19/47/14 22/48/14 20/49/14
f 22/50/15 23/51/15 24/52/15
f 23/53/16 17/54/16 24/55/16
f 22/56/17 17/57/17 20/58/17
f 19/59/18 23/60/18 21/61/18
f 18/44/13 19/62/13 20/45/13
f 19/47/14 21/63/14 22/48/14
f 22/50/15 21/64/15 23/51/15
f 23/53/16 18/65/16 17/54/16
f 22/56/17 24/66/17 17/57/17
f 19/59/18 18/67/18 23/60/18
o b2
v 0.406250 0.227124 0.902364
v 0.406250 0.389503 0.996114
v 0.406250 0.420753 0.941987
v 0.406250 0.258374 0.848237
v 0.593750 0.420753 0.941987
v 0.593750 0.258374 0.848237
v 0.593750 0.389503 0.996114
v 0.593750 0.227124 0.902364
vt 1.000000 0.000000
vt 0.833333 0.500000
vt 0.833333 0.000000
vt 0.000000 1.000000
vt 0.500000 0.500000
vt 0.500000 1.000000
vt 0.666667 0.500000
vt 0.500000 0.000000
vt 0.666667 0.000000
vt 0.000000 0.000000
vt 0.500000 0.500000
vt 0.000000 0.500000
vt 0.833333 0.500000
vt 0.666667 0.500000
vt 0.666666 1.000000
vt 0.500000 0.500000
vt 1.000000 0.500000
vt 0.000000 0.500000
vt 0.500000 0.000000
vt 0.833333 0.000000
vt 0.500000 1.000000
vn -1.0000 0.0000 0.0000
vn 0.0000 0.5000 -0.8660
vn 1.0000 0.0000 0.0000
vn 0.0000 -0.5000 0.8660
vn 0.0000 -0.8660 -0.5000
vn 0.0000 0.8660 0.5000
usemtl None
s off
f 25/68/19 27/69/19 28/70/19
f 27/71/20 30/72/20 28/73/20
f 29/74/21 32/75/21 30/76/21
f 31/77/22 25/78/22 32/79/22
f 30/76/23 25/80/23 28/81/23
f 27/82/24 31/83/24 29/74/24
f 25/68/19 26/84/19 27/69/19
f 27/71/20 29/85/20 30/72/20
f 29/74/21 31/83/21 32/75/21
f 31/77/22 26/86/22 25/78/22
f 30/76/23 32/87/23 25/80/23
f 27/82/24 26/88/24 31/83/24
o b9
v 0.406250 1.406250 1.000000
v 0.406250 1.593750 1.000000
v 0.406250 1.593750 0.937500
v 0.406250 1.406250 0.937500
v 0.593750 1.593750 0.937500
v 0.593750 1.406250 0.937500
v 0.593750 1.593750 1.000000
v 0.593750 1.406250 1.000000
vt 0.833333 0.000000
vt 1.000000 0.500000
vt 0.833333 0.500000
vt 0.000000 0.000000
vt 0.500000 0.500000
vt 0.000000 0.500000
vt 0.666667 0.500000
vt 0.500000 0.000000
vt 0.666666 0.000000
vt 0.500000 1.000000
vt 0.000000 0.500000
vt 0.500000 0.500000
vt 0.666667 0.500000
vt 0.833333 1.000000
vt 0.666667 1.000000
vt 0.666667 0.000000
vt 0.833333 0.500000
vt 1.000000 0.000000
vt 0.500000 0.000000
vt 0.500000 0.500000
vt 0.000000 1.000000
vt 0.833333 0.500000
vn -1.0000 0.0000 0.0000
vn 0.0000 0.0000 -1.0000
vn 1.0000 0.0000 0.0000
vn 0.0000 -0.0000 1.0000
vn 0.0000 -1.0000 0.0000
vn 0.0000 1.0000 0.0000
usemtl None
s off
f 34/89/25 36/90/25 33/91/25
f 35/92/26 38/93/26 36/94/26
f 37/95/27 40/96/27 38/97/27
f 39/98/28 33/99/28 40/100/28
f 38/101/29 33/102/29 36/103/29
f 35/104/30 39/105/30 37/95/30
f 34/89/25 35/106/25 36/90/25
f 35/92/26 37/107/26 38/93/26
f 37/95/27 39/108/27 40/96/27
f 39/98/28 34/109/28 33/99/28
f 38/101/29 40/110/29 33/102/29
f 35/104/30 34/89/30 39/105/30
o b1
v 0.468750 1.468750 -1.123197
v 0.468750 0.062500 1.312500
v 0.468750 0.116627 1.343750
v 0.468750 1.468750 -0.998197
v 0.531250 1.468750 -1.123197
v 0.531250 0.062500 1.312500
v 0.531250 0.116627 1.343750
v 0.531250 1.468750 -0.998197
vt 0.400001 1.000000
vt 0.200001 0.038490
vt 0.400001 0.000000
vt 0.400001 0.000000
vt 0.600001 1.000000
vt 0.400002 1.000000
vt 0.800001 0.000000
vt 1.000000 0.022222
vt 0.800001 0.022222
vt 0.800001 0.971677
vt 0.600001 0.042930
vt 0.800000 0.042930
vt 0.000000 0.961510
vt 0.200001 0.000000
vt 0.200001 1.000000
vt 0.800000 0.000000
vt 0.600001 0.000000
vt 0.200002 1.000000
vt 0.600000 0.000000
vt 1.000000 0.000000
vt 0.600002 0.971677
vt 0.000002 0.000000
vn -1.0000 0.0000 0.0000
vn 0.0000 -0.8660 -0.5000
vn 0.0000 -0.5000 0.8660
vn 0.0000 0.8660 0.5000
vn 1.0000 0.0000 0.0000
vn 0.0000 1.0000 -0.0000
usemtl None
s off
f 42/111/31 44/112/31 41/113/31
f 46/114/32 41/115/32 45/116/32
f 47/117/33 42/118/33 46/119/33
f 43/120/34 48/121/34 44/122/34
f 48/123/35 46/124/35 45/125/35
f 41/126/36 48/121/36 45/127/36
f 42/111/31 43/128/31 44/112/31
f 46/114/32 42/129/32 41/115/32
f 47/117/33 43/130/33 42/118/33
f 43/120/34 47/131/34 48/121/34
f 48/123/35 47/132/35 46/124/35
f 41/126/36 44/122/36 48/121/36
o b7
v 0.406250 1.406250 0.875000
v 0.406250 1.593750 0.875000
v 0.406250 1.593750 0.812500
v 0.406250 1.406250 0.812500
v 0.593750 1.593750 0.812500
v 0.593750 1.406250 0.812500
v 0.593750 1.593750 0.875000
v 0.593750 1.406250 0.875000
vt 0.500000 0.000000
vt 0.666667 0.500000
vt 0.500000 0.500000
vt 0.000000 0.500000
vt 0.500000 0.999999
vt 0.000000 0.999999
vt 0.833333 0.500000
vt 0.666667 0.000000
vt 0.833333 0.000000
vt 0.500000 0.500000
vt 0.000000 0.000000
vt 0.500000 0.000000
vt 0.666667 0.500000
vt 0.833333 1.000000
vt 0.666667 1.000000
vt 0.833333 0.000000
vt 1.000000 0.500000
vt 0.666666 0.000000
vt 0.500000 0.500000
vt 0.666667 0.500000
vt 0.000000 0.500000
vt 0.833333 0.500000
vt 1.000000 0.000000
vn -1.0000 0.0000 0.0000
vn 0.0000 0.0000 -1.0000
vn 1.0000 0.0000 0.0000
vn 0.0000 -0.0000 1.0000
vn 0.0000 -1.0000 0.0000
vn 0.0000 1.0000 0.0000
usemtl None
s off
f 50/133/37 52/134/37 49/135/37
f 51/136/38 54/137/38 52/138/38
f 53/139/39 56/140/39 54/141/39
f 55/142/40 49/143/40 56/144/40
f 54/145/41 49/146/41 52/147/41
f 51/148/42 55/149/42 53/139/42
f 50/133/37 51/150/37 52/134/37
f 51/136/38 53/151/38 54/137/38
f 53/139/39 55/152/39 56/140/39
f 55/142/40 50/153/40 49/143/40
f 54/145/41 56/154/41 49/146/41
f 51/148/42 50/155/42 55/149/42
o b13
v 0.468750 0.681219 -0.981827
v 0.468750 0.531223 -1.687500
v 0.468750 0.467327 -1.687500
v 0.468750 0.681219 -0.681219
v 0.531250 0.681219 -0.981827
v 0.531250 0.531223 -1.687500
v 0.531250 0.467327 -1.687500
v 0.531250 0.681219 -0.681219
vt 0.000001 0.714181
vt 0.200000 0.000000
vt 0.200000 1.000000
vt 0.800000 0.988029
vt 0.600001 0.290603
vt 0.800000 0.290603
vt 0.800000 0.000000
vt 1.000000 0.062110
vt 0.800000 0.062110
vt 0.400000 0.000000
vt 0.600000 1.000000
vt 0.400001 1.000000
vt 0.200000 0.000000
vt 0.400000 0.714182
vt 0.200000 1.000000
vt 0.800000 0.000000
vt 0.000000 0.012914
vt 0.600000 0.988029
vt 1.000000 0.000000
vt 0.600000 0.000000
vt 0.400000 0.012914
vn -1.0000 0.0000 0.0000
vn 0.0000 0.9781 -0.2079
vn 0.0000 0.0000 -1.0000
vn 0.0000 -0.9781 0.2079
vn 1.0000 -0.0000 0.0000
vn 0.0000 1.0000 0.0000
usemtl None
s off
f 57/156/43 59/157/43 60/158/43
f 62/159/44 57/160/44 61/161/44
f 58/162/45 63/163/45 59/164/45
f 64/165/46 59/166/46 63/167/46
f 63/168/47 61/169/47 64/170/47
f 57/160/48 64/171/48 61/161/48
f 57/156/43 58/172/43 59/157/43
f 62/159/44 58/173/44 57/160/44
f 58/162/45 62/174/45 63/163/45
f 64/165/46 60/175/46 59/166/46
f 63/168/47 62/176/47 61/169/47
f 57/160/48 60/175/48 64/171/48
o b6
v 0.406250 1.406250 0.625000
v 0.406250 1.593750 0.625000
v 0.406250 1.593750 0.562500
v 0.406250 1.406250 0.562500
v 0.593750 1.593750 0.562500
v 0.593750 1.406250 0.562500
v 0.593750 1.593750 0.625000
v 0.593750 1.406250 0.625000
vt 0.500000 0.000000
vt 0.666667 0.500000
vt 0.500000 0.500000
vt 0.000000 0.500000
vt 0.500000 0.999999
vt 0.000000 0.999999
vt 0.833333 0.500000
vt 0.666667 0.000000
vt 0.833333 0.000000
vt 0.500000 0.500000
vt 0.000000 0.000000
vt 0.500000 0.000000
vt 0.666667 0.500000
vt 0.833333 1.000000
vt 0.666667 1.000000
vt 0.833333 0.000000
vt 1.000000 0.500000
vt 0.666667 0.000000
vt 0.500000 0.500000
vt 0.666667 0.500000
vt 0.000000 0.500000
vt 0.833333 0.500000
vt 1.000000 0.000000
vn -1.0000 0.0000 0.0000
vn 0.0000 0.0000 -1.0000
vn 1.0000 0.0000 0.0000
vn 0.0000 -0.0000 1.0000
vn 0.0000 -1.0000 0.0000
vn 0.0000 1.0000 0.0000
usemtl None
s off
f 66/177/49 68/178/49 65/179/49
f 67/180/50 70/181/50 68/182/50
f 69/183/51 72/184/51 70/185/51
f 71/186/52 65/187/52 72/188/52
f 70/189/53 65/190/53 68/191/53
f 67/192/54 71/193/54 69/183/54
f 66/177/49 67/194/49 68/178/49
f 67/180/50 69/195/50 70/181/50
f 69/183/51 71/196/51 72/184/51
f 71/186/52 66/197/52 65/187/52
f 70/189/53 72/198/53 65/190/53
f 67/192/54 66/199/54 71/193/54
o b5
v 0.406250 1.406250 0.750000
v 0.406250 1.593750 0.750000
v 0.406250 1.593750 0.687500
v 0.406250 1.406250 0.687500
v 0.593750 1.593750 0.687500
v 0.593750 1.406250 0.687500
v 0.593750 1.593750 0.750000
v 0.593750 1.406250 0.750000
vt 0.666667 0.000000
vt 0.833333 0.500000
vt 0.666667 0.500000
vt 0.000000 0.500000
vt 0.500000 0.999999
vt 0.000000 0.999999
vt 0.666667 0.500000
vt 0.500000 0.000000
vt 0.666667 0.000000
vt 0.500000 0.500000
vt 0.000000 0.000000
vt 0.833333 0.000000
vt 1.000000 0.500000
vt 0.666667 0.500000
vt 0.833333 1.000000
vt 0.666667 1.000000
vt 0.833333 0.000000
vt 0.500000 0.500000
vt 0.000000 0.500000
vt 1.000000 0.000000
vt 0.833333 0.500000
vn -1.0000 0.0000 0.0000
vn 0.0000 0.0000 -1.0000
vn 1.0000 0.0000 0.0000
vn 0.0000 -0.0000 1.0000
vn 0.0000 -1.0000 0.0000
vn 0.0000 1.0000 0.0000
usemtl None
s off
f 74/200/55 76/201/55 73/202/55
f 75/203/56 78/204/56 76/205/56
f 77/206/57 80/207/57 78/208/57
f 79/209/58 73/210/58 80/207/58
f 78/211/59 73/212/59 76/201/59
f 75/213/60 79/214/60 77/215/60
f 74/200/55 75/216/55 76/201/55
f 75/203/56 77/217/56 78/204/56
f 77/206/57 79/209/57 80/207/57
f 79/209/58 74/218/58 73/210/58
f 78/211/59 80/219/59 73/212/59
f 75/213/60 74/220/60 79/214/60
o b3
v 0.406250 0.352124 0.685858
v 0.406250 0.514503 0.779608
v 0.406250 0.545753 0.725481
v 0.406250 0.383374 0.631731
v 0.593750 0.545753 0.725481
v 0.593750 0.383374 0.631731
v 0.593750 0.514503 0.779608
v 0.593750 0.352124 0.685858
vt 0.500000 0.000000
vt 0.666667 0.500000
vt 0.500000 0.500000
vt 0.000000 1.000000
vt 0.500000 0.500000
vt 0.500000 1.000000
vt 0.833333 0.000000
vt 0.666667 0.500000
vt 0.666667 0.000000
vt 0.000000 0.000000
vt 0.000000 0.500000
vt 0.666667 0.500000
vt 0.833333 1.000000
vt 0.666667 1.000000
vt 0.833333 0.000000
vt 1.000000 0.500000
vt 0.833333 0.500000
vt 0.666667 0.000000
vt 0.000000 0.500000
vt 0.833333 0.500000
vt 1.000000 0.000000
vn -1.0000 -0.0000 0.0000
vn 0.0000 0.5000 -0.8660
vn 1.0000 0.0000 0.0000
vn 0.0000 -0.5000 0.8660
vn 0.0000 -0.8660 -0.5000
vn 0.0000 0.8660 0.5000
usemtl None
s off
f 82/221/61 84/222/61 81/223/61
f 83/224/62 86/225/62 84/226/62
f 86/227/63 87/228/63 88/229/63
f 87/230/64 81/223/64 88/231/64
f 86/232/65 81/233/65 84/234/65
f 83/235/66 87/236/66 85/237/66
f 82/221/61 83/238/61 84/222/61
f 83/224/62 85/239/62 86/225/62
f 86/227/63 85/237/63 87/228/63
f 87/230/64 82/221/64 81/223/64
f 86/232/65 88/240/65 81/233/65
f 83/235/66 82/241/66 87/236/66
o b10
v 0.468750 0.920372 -0.048378
v 0.468750 1.468750 0.500000
v 0.468750 1.468750 0.411612
v 0.468750 0.952725 -0.104414
v 0.531250 0.920372 -0.048378
v 0.531250 1.468750 0.500000
v 0.531250 1.468750 0.411612
v 0.531250 0.952725 -0.104414
vt 0.000001 0.978862
vt 0.200000 0.078887
vt 0.200000 1.000000
vt 0.400001 0.000000
vt 0.600001 0.978862
vt 0.400001 0.978862
vt 0.800000 0.651325
vt 0.600001 0.762889
vt 0.600001 0.651325
vt 0.600001 0.000000
vt 0.800000 0.000000
vt 0.400000 0.921113
vt 0.200002 0.021138
vt 0.400001 0.000000
vt 0.800000 0.081670
vt 1.000000 0.000000
vt 1.000000 0.081670
vt 0.000000 0.000000
vt 0.600000 0.000000
vt 0.800000 0.762889
vt 0.200000 1.000000
vt 0.800000 0.000000
vn -1.0000 0.0000 0.0000
vn 0.0000 -0.7071 0.7071
vn 0.0000 1.0000 -0.0000
vn 0.0000 0.7071 -0.7071
vn 1.0000 -0.0000 0.0000
vn 0.0000 -0.8660 -0.5000
usemtl None
s off
f 89/242/67 91/243/67 92/244/67
f 94/245/68 89/246/68 93/247/68
f 91/248/69 94/249/69 95/250/69
f 91/248/70 96/251/70 92/252/70
f 95/253/71 93/254/71 96/255/71
f 96/256/72 89/257/72 92/258/72
f 89/242/67 90/259/67 91/243/67
f 94/245/68 90/260/68 89/246/68
f 91/248/69 90/261/69 94/249/69
f 91/248/70 95/250/70 96/251/70
f 95/253/71 94/262/71 93/254/71
f 96/256/72 93/263/72 89/257/72
o b11
v 0.468750 1.468750 -1.171500
v 0.468750 0.743719 -1.707995
v 0.468750 0.743719 -1.630245
v 0.468750 1.468750 -1.093750
v 0.531250 1.468750 -1.171500
v 0.531250 0.743719 -1.707995
v 0.531250 0.743719 -1.630245
v 0.531250 1.468750 -1.093750
vt 0.750000 0.048775
vt 0.500000 0.951225
vt 0.500000 0.000000
vt 0.500000 0.999999
vt 0.250000 0.048775
vt 0.500000 0.048775
vt 0.000000 1.000000
vt 0.250000 0.951225
vt 0.250000 1.000000
vt 0.000000 0.000000
vt 0.000000 0.951225
vt 0.750000 0.048775
vt 1.000000 0.951225
vt 0.750000 1.000000
vt 0.500000 0.000000
vt 0.750000 1.000000
vt 0.250000 0.000000
vt 1.000000 0.000000
vn -1.0000 0.0000 0.0000
vn 0.0000 0.5948 -0.8039
vn 0.0000 -1.0000 0.0000
vn 0.0000 -0.5948 0.8039
vn 1.0000 0.0000 0.0000
vn 0.0000 1.0000 0.0000
usemtl None
s off
f 97/264/73 99/265/73 100/266/73
f 102/267/74 97/268/74 101/269/74
f 102/270/75 99/271/75 98/272/75
f 104/273/76 99/271/76 103/274/76
f 103/275/77 101/276/77 104/277/77
f 97/268/78 104/278/78 101/269/78
f 97/264/73 98/279/73 99/265/73
f 102/267/74 98/272/74 97/268/74
f 102/270/75 103/274/75 99/271/75
f 104/273/76 100/280/76 99/271/76
f 103/275/77 102/281/77 101/276/77
f 97/268/78 100/280/78 104/278/78
o b8
v 0.468750 1.468750 1.312500
v 0.468750 1.531250 1.312500
v 0.468750 1.531250 -1.687500
v 0.468750 1.468750 -1.687500
v 0.531250 1.531250 -1.687500
v 0.531250 1.468750 -1.687500
v 0.531250 1.531250 1.312500
v 0.531250 1.468750 1.312500
vt 0.199999 0.000000
vt 0.000002 1.000000
vt 0.000000 0.000000
vt 0.800001 0.020833
vt 1.000000 0.041667
vt 0.800001 0.041667
vt 0.400001 1.000000
vt 0.600001 0.000000
vt 0.600001 1.000000
vt 1.000000 0.020833
vt 0.800001 0.000000
vt 1.000000 0.000000
vt 0.200002 1.000000
vt 0.400000 0.000000
vt 0.400001 1.000000
vt 0.600001 1.000000
vt 0.800001 0.000000
vt 0.800000 1.000000
vt 0.200001 1.000000
vt 1.000000 0.020833
vt 0.400002 0.000000
vt 0.800001 0.020833
vt 0.200001 0.000000
vt 0.600001 0.000000
vn -1.0000 0.0000 0.0000
vn 0.0000 0.0000 -1.0000
vn 1.0000 0.0000 0.0000
vn 0.0000 0.0000 1.0000
vn 0.0000 -1.0000 -0.0000
vn 0.0000 1.0000 0.0000
usemtl None
s off
f 106/282/79 108/283/79 105/284/79
f 107/285/80 110/286/80 108/287/80
f 109/288/81 112/289/81 110/290/81
f 111/291/82 105/292/82 112/293/82
f 110/294/83 105/295/83 108/296/83
f 107/297/84 111/298/84 109/299/84
f 106/282/79 107/300/79 108/283/79
f 107/285/80 109/301/80 110/286/80
f 109/288/81 111/302/81 112/289/81
f 111/291/82 106/303/82 105/292/82
f 110/294/83 112/304/83 105/295/83
f 107/297/84 106/305/84 111/298/84
