# Blender v2.79 (sub 0) OBJ File: ''
# www.blender.org
mtllib catenary_short.mtl
o b0
v 0.406250 0.239277 1.047335
v 0.406250 0.371859 1.179918
v 0.406250 0.416053 1.135723
v 0.406250 0.283471 1.003141
v 0.593750 0.416053 1.135723
v 0.593750 0.283471 1.003141
v 0.593750 0.371859 1.179918
v 0.593750 0.239277 1.047335
vt 0.333334 0.500000
vt 0.166667 1.000000
vt 0.166667 0.500000
vt 0.000000 0.000000
vt 0.500000 0.500000
vt 0.000000 0.500000
vt 0.333334 0.500000
vt 0.500000 1.000000
vt 0.333334 1.000000
vt 0.500000 0.000000
vt 1.000000 0.500000
vt 0.500000 0.500000
vt 0.000000 0.500000
vt 0.166667 1.000000
vt 0.000000 1.000000
vt 0.500000 0.500000
vt 0.666667 1.000000
vt 0.500000 1.000000
vt 0.333334 1.000000
vt 0.500000 0.000000
vt 0.500000 0.500000
vt 1.000000 0.000000
vt 0.166667 0.500000
vt 0.666667 0.500000
vn -1.0000 0.0000 0.0000
vn 0.0000 0.7071 -0.7071
vn 1.0000 0.0000 0.0000
vn 0.0000 -0.7071 0.7071
vn 0.0000 -0.7071 -0.7071
vn 0.0000 0.7071 0.7071
usemtl None
s off
f 1/1/1 3/2/1 4/3/1
f 3/4/2 6/5/2 4/6/2
f 5/7/3 8/8/3 6/9/3
f 7/10/4 1/11/4 8/12/4
f 6/13/5 1/14/5 4/15/5
f 3/16/6 7/17/6 5/18/6
f 1/1/1 2/19/1 3/2/1
f 3/4/2 5/20/2 6/5/2
f 5/7/3 7/21/3 8/8/3
f 7/10/4 2/22/4 1/11/4
f 6/13/5 8/23/5 1/14/5
f 3/16/6 2/24/6 7/17/6
o b4
v 0.406250 0.416053 0.870558
v 0.406250 0.548636 1.003141
v 0.406250 0.592830 0.958947
v 0.406250 0.460248 0.826364
v 0.593750 0.592830 0.958947
v 0.593750 0.460248 0.826364
v 0.593750 0.548636 1.003141
v 0.593750 0.416053 0.870558
vt 0.500000 0.000000
vt 0.666666 0.500000
vt 0.500000 0.500000
vt 0.500000 1.000000
vt 0.000000 0.500000
vt 0.500000 0.500000
vt 0.666667 0.500000
vt 0.833333 0.000000
vt 0.833333 0.500000
vt 0.000000 0.000000
vt 0.000000 0.500000
vt 0.833333 1.000000
vt 0.666667 1.000000
vt 1.000000 0.500000
vt 1.000000 0.000000
vt 0.666667 0.000000
vt 0.000000 1.000000
vt 0.666667 0.000000
vt 0.833333 0.500000
vn -1.0000 -0.0000 0.0000
vn 0.0000 0.7071 -0.7071
vn 1.0000 -0.0000 0.0000
vn 0.0000 -0.7071 0.7071
vn 0.0000 -0.7071 -0.7071
vn 0.0000 0.7071 0.7071
usemtl None
s off
f 10/25/7 12/26/7 9/27/7
f 11/28/8 14/29/8 12/30/8
f 14/31/9 15/32/9 16/33/9
f 15/34/10 9/27/10 16/35/10
f 14/31/11 9/36/11 12/37/11
f 11/38/12 15/32/12 13/39/12
f 10/25/7 11/40/7 12/26/7
f 11/28/8 13/41/8 14/29/8
f 14/31/9 13/42/9 15/32/9
f 15/34/10 10/25/10 9/27/10
f 14/31/11 16/33/11 9/36/11
f 11/38/12 10/43/12 15/32/12
o b2
v 0.406250 0.327665 0.958947
v 0.406250 0.460248 1.091529
v 0.406250 0.504442 1.047335
v 0.406250 0.371859 0.914752
v 0.593750 0.504442 1.047335
v 0.593750 0.371859 0.914752
v 0.593750 0.460248 1.091529
v 0.593750 0.327665 0.958947
vt 0.500000 0.000000
vt 0.666667 0.500000
vt 0.500000 0.500000
vt 0.000000 0.000000
vt 0.500000 0.500000
vt 0.000000 0.500000
vt 1.000000 0.000000
vt 0.833333 0.500000
vt 0.833333 0.000000
vt 0.000000 0.500000
vt 0.500000 1.000000
vt 0.000000 1.000000
vt 0.666667 0.500000
vt 0.833333 1.000000
vt 0.666667 1.000000
vt 0.666667 0.000000
vt 0.666667 0.500000
vt 0.500000 0.000000
vt 1.000000 0.500000
vt 0.500000 0.500000
vt 0.833333 0.500000
vt 0.833333 0.000000
vn -1.0000 0.0000 0.0000
vn 0.0000 0.7071 -0.7071
vn 1.0000 0.0000 0.0000
vn 0.0000 -0.7071 0.7071
vn 0.0000 -0.7071 -0.7071
vn 0.0000 0.7071 0.7071
usemtl None
s off
f 18/44/13 20/45/13 17/46/13
f 19/47/14 22/48/14 20/49/14
f 22/50/15 23/51/15 24/52/15
f 23/53/16 17/54/16 24/55/16
f 22/56/17 17/57/17 20/58/17
f 19/59/18 23/51/18 21/60/18
f 18/44/13 19/59/13 20/45/13
f 19/47/14 21/61/14 22/48/14
f 22/50/15 21/62/15 23/51/15
f 23/53/16 18/63/16 17/54/16
f 22/56/17 24/64/17 17/57/17
f 19/59/18 18/65/18 23/51/18
o b9
v 0.406250 1.406250 1.000000
v 0.406250 1.593750 1.000000
v 0.406250 1.593750 0.937500
v 0.406250 1.406250 0.937500
v 0.593750 1.593750 0.937500
v 0.593750 1.406250 0.937500
v 0.593750 1.593750 1.000000
v 0.593750 1.406250 1.000000
vt 0.833333 0.000000
vt 1.000000 0.500000
vt 0.833333 0.500000
vt 0.000000 0.000000
vt 0.500000 0.500000
vt 0.000000 0.500000
vt 0.666667 0.500000
vt 0.500000 0.000000
vt 0.666666 0.000000
vt 0.500000 1.000000
vt 0.000000 0.500000
vt 0.500000 0.500000
vt 0.666667 0.500000
vt 0.833333 1.000000
vt 0.666667 1.000000
vt 0.666667 0.000000
vt 0.833333 0.500000
vt 1.000000 0.000000
vt 0.500000 0.000000
vt 0.500000 0.500000
vt 0.000000 1.000000
vt 0.833333 0.500000
vn -1.0000 0.0000 0.0000
vn 0.0000 0.0000 -1.0000
vn 1.0000 0.0000 0.0000
vn 0.0000 -0.0000 1.0000
vn 0.0000 -1.0000 0.0000
vn 0.0000 1.0000 0.0000
usemtl None
s off
f 26/66/19 28/67/19 25/68/19
f 27/69/20 30/70/20 28/71/20
f 29/72/21 32/73/21 30/74/21
f 31/75/22 25/76/22 32/77/22
f 30/78/23 25/79/23 28/80/23
f 27/81/24 31/82/24 29/72/24
f 26/66/19 27/83/19 28/67/19
f 27/69/20 29/84/20 30/70/20
f 29/72/21 31/85/21 32/73/21
f 31/75/22 26/86/22 25/76/22
f 30/78/23 32/87/23 25/79/23
f 27/81/24 26/66/24 31/82/24
o b1
v 0.468750 1.468750 -0.093750
v 0.468750 0.062500 1.312500
v 0.468750 0.106694 1.356694
v 0.468750 1.468750 -0.005361
v 0.531250 1.468750 -0.093750
v 0.531250 0.062500 1.312500
v 0.531250 0.106694 1.356694
v 0.531250 1.468750 -0.005361
vt 0.600000 1.000000
vt 0.400001 0.031427
vt 0.600000 0.000000
vt 0.000000 0.000000
vt 0.200000 1.000000
vt 0.000001 1.000000
vt 0.800000 0.000000
vt 1.000000 0.031427
vt 0.800000 0.031427
vt 0.600001 0.000000
vt 0.800000 0.684885
vt 0.600000 0.684885
vt 0.400001 0.031427
vt 0.200000 1.000000
vt 0.200001 0.000000
vt 0.600000 0.729329
vt 0.800000 0.729329
vt 0.400001 1.000000
vt 0.200000 0.000000
vt 1.000000 0.000000
vt 0.400000 1.000000
vn -1.0000 0.0000 0.0000
vn 0.0000 -0.7071 -0.7071
vn 0.0000 -0.7071 0.7071
vn 0.0000 0.7071 0.7071
vn 1.0000 0.0000 0.0000
vn 0.0000 1.0000 0.0000
usemtl None
s off
f 34/88/25 36/89/25 33/90/25
f 38/91/26 33/92/26 37/93/26
f 39/94/27 34/95/27 38/96/27
f 35/97/28 40/98/28 36/99/28
f 40/100/29 38/101/29 37/102/29
f 33/103/30 40/98/30 37/104/30
f 34/88/25 35/105/25 36/89/25
f 38/91/26 34/106/26 33/92/26
f 39/94/27 35/107/27 34/95/27
f 35/97/28 39/94/28 40/98/28
f 40/100/29 39/108/29 38/101/29
f 33/103/30 36/99/30 40/98/30
o b12
v 0.468750 0.681219 0.693781
v 0.468750 0.681219 -1.181219
v 0.531250 0.681219 -1.181219
v 0.531250 0.681219 0.693781
v 0.468750 0.743719 0.631281
v 0.468750 0.743719 -1.181219
v 0.531250 0.743719 -1.181219
v 0.531250 0.743719 0.631281
vt 0.200000 1.000000
vt 0.000000 0.000000
vt 0.200000 0.000000
vt 0.200000 0.966667
vt 0.400000 0.000000
vt 0.400000 1.000000
vt 0.800000 0.033333
vt 1.000000 0.000000
vt 1.000000 0.033333
vt 0.400000 0.000000
vt 0.600000 0.966667
vt 0.400000 1.000000
vt 0.600000 0.000000
vt 0.800000 0.683537
vt 0.600001 0.683537
vt 0.600001 0.730677
vt 0.000001 1.000000
vt 0.200000 0.000000
vt 0.800000 0.000000
vt 0.800000 0.730677
vn 0.0000 -1.0000 -0.0000
vn -1.0000 -0.0000 0.0000
vn 0.0000 0.0000 -1.0000
vn 1.0000 0.0000 0.0000
vn 0.0000 1.0000 0.0000
vn 0.0000 0.7071 0.7071
usemtl None
s off
f 42/109/31 44/110/31 41/111/31
f 45/112/32 42/113/32 41/114/32
f 42/115/33 47/116/33 43/117/33
f 43/118/34 48/119/34 44/120/34
f 47/121/35 45/122/35 48/123/35
f 45/122/36 44/124/36 48/123/36
f 42/109/31 43/125/31 44/110/31
f 45/112/32 46/126/32 42/113/32
f 42/115/33 46/127/33 47/116/33
f 43/118/34 47/121/34 48/119/34
f 47/121/35 46/127/35 45/122/35
f 45/122/36 41/128/36 44/124/36
o b7
v 0.406250 1.406250 0.875000
v 0.406250 1.593750 0.875000
v 0.406250 1.593750 0.812500
v 0.406250 1.406250 0.812500
v 0.593750 1.593750 0.812500
v 0.593750 1.406250 0.812500
v 0.593750 1.593750 0.875000
v 0.593750 1.406250 0.875000
vt 0.500000 0.000000
vt 0.666667 0.500000
vt 0.500000 0.500000
vt 0.000000 0.500000
vt 0.500000 0.999999
vt 0.000000 0.999999
vt 0.833333 0.500000
vt 0.666667 0.000000
vt 0.833333 0.000000
vt 0.500000 0.500000
vt 0.000000 0.000000
vt 0.500000 0.000000
vt 0.666667 0.500000
vt 0.833333 1.000000
vt 0.666667 1.000000
vt 0.833333 0.000000
vt 1.000000 0.500000
vt 0.666666 0.000000
vt 0.500000 0.500000
vt 0.666667 0.500000
vt 0.000000 0.500000
vt 0.833333 0.500000
vt 1.000000 0.000000
vn -1.0000 0.0000 0.0000
vn 0.0000 0.0000 -1.0000
vn 1.0000 0.0000 0.0000
vn 0.0000 -0.0000 1.0000
vn 0.0000 -1.0000 0.0000
vn 0.0000 1.0000 0.0000
usemtl None
s off
f 50/129/37 52/130/37 49/131/37
f 51/132/38 54/133/38 52/134/38
f 53/135/39 56/136/39 54/137/39
f 55/138/40 49/139/40 56/140/40
f 54/141/41 49/142/41 52/143/41
f 51/144/42 55/145/42 53/135/42
f 50/129/37 51/146/37 52/130/37
f 51/132/38 53/147/38 54/133/38
f 53/135/39 55/148/39 56/136/39
f 55/138/40 50/149/40 49/139/40
f 54/141/41 56/150/41 49/142/41
f 51/144/42 50/151/42 55/145/42
o b13
v 0.468750 0.681219 0.018173
v 0.468750 0.531223 -0.687500
v 0.468750 0.467327 -0.687500
v 0.468750 0.681219 0.318782
v 0.531250 0.681219 0.018173
v 0.531250 0.531223 -0.687500
v 0.531250 0.467327 -0.687500
v 0.531250 0.681219 0.318782
vt 0.475549 0.285818
vt 0.300732 1.000000
vt 0.300733 0.000000
vt 0.650366 0.000000
vt 0.825183 0.697426
vt 0.650366 0.697426
vt 0.825183 0.000000
vt 1.000000 0.062110
vt 0.825183 0.062110
vt 0.475549 0.000000
vt 0.650366 1.000000
vt 0.475550 1.000000
vt 0.300732 0.998111
vt 0.000000 0.289011
vt 0.123963 0.000000
vt 0.650367 0.988029
vt 0.475549 0.987086
vt 1.000000 0.000000
vt 0.650366 0.000000
vt 0.123963 0.988954
vt 0.825183 0.988029
vn -1.0000 0.0000 0.0000
vn 0.0000 0.9781 -0.2079
vn 0.0000 0.0000 -1.0000
vn 0.0000 -0.9781 0.2079
vn 1.0000 -0.0000 0.0000
vn 0.0000 1.0000 0.0000
usemtl None
s off
f 57/152/43 59/153/43 60/154/43
f 62/155/44 57/156/44 61/157/44
f 58/158/45 63/159/45 59/160/45
f 64/161/46 59/162/46 63/163/46
f 63/164/47 61/165/47 64/166/47
f 57/156/48 64/167/48 61/157/48
f 57/152/43 58/168/43 59/153/43
f 62/155/44 58/158/44 57/156/44
f 58/158/45 62/169/45 63/159/45
f 64/161/46 60/170/46 59/162/46
f 63/164/47 62/171/47 61/165/47
f 57/156/48 60/172/48 64/167/48
o b6
v 0.406250 1.406250 0.625000
v 0.406250 1.593750 0.625000
v 0.406250 1.593750 0.562500
v 0.406250 1.406250 0.562500
v 0.593750 1.593750 0.562500
v 0.593750 1.406250 0.562500
v 0.593750 1.593750 0.625000
v 0.593750 1.406250 0.625000
vt 0.500000 0.000000
vt 0.666667 0.500000
vt 0.500000 0.500000
vt 0.000000 0.500000
vt 0.500000 0.999999
vt 0.000000 0.999999
vt 0.833333 0.500000
vt 0.666667 0.000000
vt 0.833333 0.000000
vt 0.500000 0.500000
vt 0.000000 0.000000
vt 0.500000 0.000000
vt 0.666667 0.500000
vt 0.833333 1.000000
vt 0.666667 1.000000
vt 0.833333 0.000000
vt 1.000000 0.500000
vt 0.666667 0.000000
vt 0.500000 0.500000
vt 0.666667 0.500000
vt 0.000000 0.500000
vt 0.833333 0.500000
vt 1.000000 0.000000
vn -1.0000 0.0000 0.0000
vn 0.0000 0.0000 -1.0000
vn 1.0000 0.0000 0.0000
vn 0.0000 -0.0000 1.0000
vn 0.0000 -1.0000 0.0000
vn 0.0000 1.0000 0.0000
usemtl None
s off
f 66/173/49 68/174/49 65/175/49
f 67/176/50 70/177/50 68/178/50
f 69/179/51 72/180/51 70/181/51
f 71/182/52 65/183/52 72/184/52
f 70/185/53 65/186/53 68/187/53
f 67/188/54 71/189/54 69/179/54
f 66/173/49 67/190/49 68/174/49
f 67/176/50 69/191/50 70/177/50
f 69/179/51 71/192/51 72/180/51
f 71/182/52 66/193/52 65/183/52
f 70/185/53 72/194/53 65/186/53
f 67/188/54 66/195/54 71/189/54
o b5
v 0.406250 1.406250 0.750000
v 0.406250 1.593750 0.750000
v 0.406250 1.593750 0.687500
v 0.406250 1.406250 0.687500
v 0.593750 1.593750 0.687500
v 0.593750 1.406250 0.687500
v 0.593750 1.593750 0.750000
v 0.593750 1.406250 0.750000
vt 0.666667 0.000000
vt 0.833333 0.500000
vt 0.666667 0.500000
vt 0.000000 0.500000
vt 0.500000 0.999999
vt 0.000000 0.999999
vt 0.666667 0.500000
vt 0.500000 0.000000
vt 0.666667 0.000000
vt 0.500000 0.500000
vt 0.000000 0.000000
vt 0.833333 0.000000
vt 1.000000 0.500000
vt 0.666667 0.500000
vt 0.833333 1.000000
vt 0.666667 1.000000
vt 0.833333 0.000000
vt 0.500000 0.500000
vt 0.000000 0.500000
vt 1.000000 0.000000
vt 0.833333 0.500000
vn -1.0000 0.0000 0.0000
vn 0.0000 0.0000 -1.0000
vn 1.0000 0.0000 0.0000
vn 0.0000 -0.0000 1.0000
vn 0.0000 -1.0000 0.0000
vn 0.0000 1.0000 0.0000
usemtl None
s off
f 74/196/55 76/197/55 73/198/55
f 75/199/56 78/200/56 76/201/56
f 77/202/57 80/203/57 78/204/57
f 79/205/58 73/206/58 80/203/58
f 78/207/59 73/208/59 76/197/59
f 75/209/60 79/210/60 77/211/60
f 74/196/55 75/212/55 76/197/55
f 75/199/56 77/213/56 78/200/56
f 77/202/57 79/205/57 80/203/57
f 79/205/58 74/214/58 73/206/58
f 78/207/59 80/215/59 73/208/59
f 75/209/60 74/216/60 79/210/60
o b3
v 0.406250 0.504442 0.782170
v 0.406250 0.637024 0.914752
v 0.406250 0.681219 0.870558
v 0.406250 0.548636 0.737976
v 0.593750 0.681219 0.870558
v 0.593750 0.548636 0.737976
v 0.593750 0.637024 0.914752
v 0.593750 0.504442 0.782170
vt 0.666667 0.500000
vt 0.833333 0.000000
vt 0.833333 0.500000
vt 0.000000 0.500000
vt 0.500000 1.000000
vt 0.000000 1.000000
vt 0.833333 0.000000
vt 1.000000 0.500000
vt 0.833333 0.500000
vt 0.000000 0.000000
vt 0.500000 0.500000
vt 0.000000 0.500000
vt 0.500000 0.500000
vt 0.666666 1.000000
vt 0.500000 1.000000
vt 0.500000 0.000000
vt 0.666666 0.500000
vt 0.500000 0.500000
vt 0.666667 0.000000
vt 1.000000 0.000000
vt 0.500000 0.000000
vt 0.666666 0.500000
vn -1.0000 0.0000 0.0000
vn 0.0000 0.7071 -0.7071
vn 1.0000 -0.0000 0.0000
vn 0.0000 -0.7071 0.7071
vn 0.0000 -0.7071 -0.7071
vn 0.0000 0.7071 0.7071
usemtl None
s off
f 81/217/61 83/218/61 84/219/61
f 83/220/62 86/221/62 84/222/62
f 85/223/63 88/224/63 86/225/63
f 87/226/64 81/227/64 88/228/64
f 86/229/65 81/230/65 84/231/65
f 83/232/66 87/233/66 85/234/66
f 81/217/61 82/235/61 83/218/61
f 83/220/62 85/234/62 86/221/62
f 85/223/63 87/236/63 88/224/63
f 87/226/64 82/237/64 81/227/64
f 86/229/65 88/238/65 81/230/65
f 83/232/66 82/235/66 87/233/66
o b10
v 0.468750 1.468750 0.411612
v 0.468750 1.260263 0.203125
v 0.468750 1.216069 0.247319
v 0.468750 1.468750 0.500000
v 0.531250 1.468750 0.411612
v 0.531250 1.260263 0.203125
v 0.531250 1.216069 0.247319
v 0.531250 1.468750 0.500000
vt 0.200000 0.825099
vt 0.400000 0.000000
vt 0.400000 1.000000
vt 0.600000 0.000000
vt 0.800000 0.583433
vt 0.600000 0.583433
vt 0.800000 0.174901
vt 1.000000 0.000000
vt 1.000000 0.174901
vt 0.400000 0.000000
vt 0.600000 1.000000
vt 0.400000 1.000000
vt 0.200000 0.999999
vt 0.000000 0.174901
vt 0.200000 0.000000
vt 0.600000 0.830781
vt 0.200001 0.000000
vt 0.800000 0.000000
vt 0.800000 0.000000
vt 0.600000 0.000000
vt 0.000001 1.000000
vt 0.800000 0.830781
vn -1.0000 0.0000 0.0000
vn 0.0000 0.7071 -0.7071
vn 0.0000 -0.7071 -0.7071
vn 0.0000 -0.7071 0.7071
vn 1.0000 0.0000 0.0000
vn 0.0000 1.0000 -0.0000
usemtl None
s off
f 89/239/67 91/240/67 92/241/67
f 94/242/68 89/243/68 93/244/68
f 94/245/69 91/246/69 90/247/69
f 96/248/70 91/249/70 95/250/70
f 95/251/71 93/252/71 96/253/71
f 89/243/72 96/254/72 93/244/72
f 89/239/67 90/255/67 91/240/67
f 94/242/68 90/256/68 89/243/68
f 94/245/69 95/257/69 91/246/69
f 96/248/70 92/258/70 91/249/70
f 95/251/71 94/259/71 93/252/71
f 89/243/72 92/260/72 96/254/72
o b11
v 0.468750 1.468750 -0.171500
v 0.468750 0.743719 -0.707995
v 0.468750 0.743719 -0.630245
v 0.468750 1.468750 -0.093750
v 0.531250 1.468750 -0.171500
v 0.531250 0.743719 -0.707995
v 0.531250 0.743719 -0.630245
v 0.531250 1.468750 -0.093750
vt 0.250000 0.048774
vt 0.000000 0.951225
vt 0.000001 0.000000
vt 1.000000 1.000000
vt 0.750000 0.048775
vt 1.000000 0.048775
vt 0.500000 1.000000
vt 0.750000 0.951225
vt 0.750000 1.000000
vt 0.500000 0.000000
vt 0.500000 0.951225
vt 0.250000 0.048775
vt 0.500000 0.951225
vt 0.250002 1.000000
vt 1.000000 0.000000
vt 0.250000 1.000000
vt 0.750000 0.000000
vt 0.500000 0.000000
vn -1.0000 0.0000 0.0000
vn 0.0000 0.5948 -0.8039
vn 0.0000 -1.0000 0.0000
vn 0.0000 -0.5948 0.8039
vn 1.0000 -0.0000 0.0000
vn 0.0000 1.0000 0.0000
usemtl None
s off
f 97/261/73 99/262/73 100/263/73
f 102/264/74 97/265/74 101/266/74
f 102/267/75 99/268/75 98/269/75
f 104/270/76 99/268/76 103/271/76
f 103/272/77 101/273/77 104/274/77
f 97/265/78 104/275/78 101/266/78
f 97/261/73 98/276/73 99/262/73
f 102/264/74 98/269/74 97/265/74
f 102/267/75 103/271/75 99/268/75
f 104/270/76 100/277/76 99/268/76
f 103/272/77 102/278/77 101/273/77
f 97/265/78 100/277/78 104/275/78
o b8
v 0.468750 1.468750 1.312500
v 0.468750 1.531250 1.312500
v 0.468750 1.531250 -0.687500
v 0.468750 1.468750 -0.687500
v 0.531250 1.531250 -0.687500
v 0.531250 1.468750 -0.687500
v 0.531250 1.531250 1.312500
v 0.531250 1.468750 1.312500
vt 0.200000 0.000000
vt 0.000001 1.000000
vt 0.000000 0.000000
vt 0.800000 0.031250
vt 1.000000 0.062500
vt 0.800000 0.062500
vt 0.600001 1.000000
vt 0.800001 0.000000
vt 0.800001 1.000000
vt 1.000000 0.031250
vt 0.800001 0.000000
vt 1.000000 0.000000
vt 0.200001 1.000000
vt 0.400000 0.000000
vt 0.400001 1.000000
vt 0.400001 1.000000
vt 0.600001 0.000000
vt 0.200001 1.000000
vt 1.000000 0.031250
vt 0.800000 0.031250
vt 0.200001 0.000000
vt 0.400001 0.000000
vn -1.0000 0.0000 0.0000
vn 0.0000 0.0000 -1.0000
vn 1.0000 0.0000 0.0000
vn 0.0000 0.0000 1.0000
vn 0.0000 -1.0000 -0.0000
vn 0.0000 1.0000 0.0000
usemtl None
s off
f 106/279/79 108/280/79 105/281/79
f 107/282/80 110/283/80 108/284/80
f 109/285/81 112/286/81 110/287/81
f 111/288/82 105/289/82 112/290/82
f 110/291/83 105/292/83 108/293/83
f 107/294/84 111/295/84 109/285/84
f 106/279/79 107/296/79 108/280/79
f 107/282/80 109/297/80 110/283/80
f 109/285/81 111/295/81 112/286/81
f 111/288/82 106/298/82 105/289/82
f 110/291/83 112/299/83 105/292/83
f 107/294/84 106/300/84 111/295/84
